<svg width="139" height="57" viewBox="0 0 139 57" fill="none" xmlns="http://www.w3.org/2000/svg">
<g filter="url(#filter0_d_44_71)">
<rect x="4" width="131" height="49" fill="white"/>
</g>
<path d="M27.92 30.26C27.1467 30.26 26.4067 30.1733 25.7 30C25.0067 29.8267 24.4067 29.5933 23.9 29.3L24.14 26.62C24.74 26.9933 25.3667 27.2867 26.02 27.5C26.6867 27.7 27.3 27.8 27.86 27.8C28.5 27.8 29.02 27.6667 29.42 27.4C29.82 27.1333 30.02 26.78 30.02 26.34C30.02 25.98 29.8867 25.7067 29.62 25.52C29.3533 25.32 28.9333 25.1067 28.36 24.88L27.88 24.68C27.8133 24.6533 27.74 24.6267 27.66 24.6C27.58 24.56 27.4867 24.52 27.38 24.48C26.6333 24.1733 26.0333 23.8867 25.58 23.62C25.1267 23.34 24.7333 22.9533 24.4 22.46C24.08 21.9667 23.92 21.3267 23.92 20.54C23.92 19.26 24.3533 18.2533 25.22 17.52C26.0867 16.7867 27.2933 16.42 28.84 16.42C30.0133 16.42 31.2133 16.66 32.44 17.14L32 19.78C31.5067 19.5 30.9733 19.28 30.4 19.12C29.84 18.96 29.3067 18.88 28.8 18.88C28.1733 18.88 27.6867 19.0067 27.34 19.26C26.9933 19.5 26.82 19.8267 26.82 20.24C26.82 20.6 26.94 20.88 27.18 21.08C27.42 21.28 27.8067 21.4933 28.34 21.72L29.16 22.04C29.9333 22.3333 30.5733 22.62 31.08 22.9C31.5867 23.18 32.02 23.5867 32.38 24.12C32.74 24.64 32.92 25.32 32.92 26.16C32.92 27.4533 32.48 28.46 31.6 29.18C30.72 29.9 29.4933 30.26 27.92 30.26ZM38.6073 30.3C37.6473 30.3 36.9007 30.06 36.3673 29.58C35.8473 29.0867 35.5873 28.3933 35.5873 27.5V22.12H33.9873V19.7H35.5873V17.5C36.534 17.34 37.4673 17.22 38.3873 17.14V19.7H40.9873V22.12H38.3873V26.98C38.3873 27.26 38.4673 27.4733 38.6273 27.62C38.8007 27.7667 39.0407 27.84 39.3473 27.84C39.7207 27.84 40.1473 27.7533 40.6273 27.58L41.2473 29.7C40.394 30.1 39.514 30.3 38.6073 30.3ZM45.737 30.3C44.6704 30.3 43.8237 29.8467 43.197 28.94C42.5704 28.0333 42.257 26.8 42.257 25.24C42.257 23.3467 42.737 21.9067 43.697 20.92C44.657 19.92 46.037 19.42 47.837 19.42C48.8504 19.42 50.037 19.58 51.397 19.9V30H48.717L48.777 28.36H48.697C48.3504 28.9867 47.9237 29.4667 47.417 29.8C46.9237 30.1333 46.3637 30.3 45.737 30.3ZM46.337 27.84C46.7504 27.84 47.157 27.62 47.557 27.18C47.957 26.74 48.3304 26.1533 48.677 25.42V22.06C48.2504 21.94 47.8237 21.88 47.397 21.88C46.597 21.88 45.9904 22.1533 45.577 22.7C45.177 23.2467 44.977 24.0533 44.977 25.12C44.977 25.96 45.097 26.6267 45.337 27.12C45.577 27.6 45.9104 27.84 46.337 27.84ZM54.1452 19.7H56.9652V21.38H57.1252C57.5118 20.7 57.8918 20.2 58.2652 19.88C58.6518 19.56 59.1318 19.4 59.7052 19.4C59.9452 19.4 60.1452 19.4267 60.3052 19.48L60.0052 22.52C59.6585 22.4267 59.3785 22.38 59.1652 22.38C58.8585 22.38 58.5852 22.44 58.3452 22.56C58.1185 22.68 57.9118 22.84 57.7252 23.04C57.5518 23.24 57.2985 23.5467 56.9652 23.96V30H54.1452V19.7ZM66.1464 30.3C65.1864 30.3 64.4397 30.06 63.9064 29.58C63.3864 29.0867 63.1264 28.3933 63.1264 27.5V22.12H61.5264V19.7H63.1264V17.5C64.0731 17.34 65.0064 17.22 65.9264 17.14V19.7H68.5264V22.12H65.9264V26.98C65.9264 27.26 66.0064 27.4733 66.1664 27.62C66.3397 27.7667 66.5797 27.84 66.8864 27.84C67.2597 27.84 67.6864 27.7533 68.1664 27.58L68.7864 29.7C67.9331 30.1 67.0531 30.3 66.1464 30.3Z" fill="#F74B6C"/>
<path d="M109 24.5L93.25 33.5933L93.25 15.4067L109 24.5Z" fill="#F74B6C"/>
<defs>
<filter id="filter0_d_44_71" x="0" y="0" width="139" height="57" filterUnits="userSpaceOnUse" color-interpolation-filters="sRGB">
<feFlood flood-opacity="0" result="BackgroundImageFix"/>
<feColorMatrix in="SourceAlpha" type="matrix" values="0 0 0 0 0 0 0 0 0 0 0 0 0 0 0 0 0 0 127 0" result="hardAlpha"/>
<feOffset dy="4"/>
<feGaussianBlur stdDeviation="2"/>
<feComposite in2="hardAlpha" operator="out"/>
<feColorMatrix type="matrix" values="0 0 0 0 0 0 0 0 0 0 0 0 0 0 0 0 0 0 0.25 0"/>
<feBlend mode="normal" in2="BackgroundImageFix" result="effect1_dropShadow_44_71"/>
<feBlend mode="normal" in="SourceGraphic" in2="effect1_dropShadow_44_71" result="shape"/>
</filter>
</defs>
</svg>
