<svg width="255" height="268" viewBox="0 0 255 268" fill="none" xmlns="http://www.w3.org/2000/svg">
<circle cx="127.5" cy="127.5" r="127.5" fill="#f74b6c"/>
<g clip-path="url(#clip0_185_13)">
<path d="M127.5 268C197.916 268 255 210.916 255 140.5C255 70.0837 197.916 13 127.5 13C57.0837 13 0 70.0837 0 140.5C0 210.916 57.0837 268 127.5 268Z" fill="black"/>
<path d="M91.8956 148.23H102.175V150.086C102.175 157.593 100.805 162.454 98.0634 164.653C95.3222 166.853 89.2659 167.952 79.8788 167.952C69.2245 167.952 62.6742 166.215 60.2199 162.741C57.7655 159.25 56.5463 149.959 56.5463 134.818C56.5463 125.909 58.2038 120.052 61.5267 117.247C64.8497 114.442 71.7905 113.04 82.365 113.04C90.0628 113.04 95.1947 114.195 97.7845 116.498C100.366 118.809 101.657 123.383 101.657 130.244L101.697 131.463H91.4175V130.085C91.4175 126.555 90.7561 124.283 89.4253 123.295C88.0945 122.307 85.0505 121.813 80.3091 121.813C73.95 121.813 70.1409 122.594 68.858 124.14C67.575 125.694 66.9375 130.308 66.9375 137.982C66.9375 148.317 67.5113 154.429 68.6588 156.326C69.8142 158.222 73.5117 159.171 79.7831 159.171C84.8752 159.171 88.1742 158.653 89.6883 157.593C91.2024 156.541 91.9594 154.214 91.9594 150.636L91.8956 148.23Z" fill="#F74B6C"/>
<path d="M148.673 129.248H138.664C138.616 128.754 138.584 128.38 138.584 128.14C138.353 125.104 137.684 123.2 136.576 122.419C135.469 121.646 132.855 121.255 128.751 121.255C123.898 121.255 120.727 121.702 119.244 122.594C117.746 123.487 117.013 125.383 117.013 128.252C117.013 131.655 117.619 133.695 118.83 134.38C120.041 135.073 124.049 135.591 130.847 135.966C138.895 136.412 144.091 137.56 146.458 139.408C148.808 141.249 149.988 145.09 149.988 150.907C149.988 158.079 148.601 162.709 145.836 164.805C143.063 166.908 136.967 167.952 127.532 167.952C119.045 167.952 113.411 166.924 110.63 164.868C107.849 162.813 106.462 158.653 106.462 152.373L106.423 150.397H116.384L116.423 151.553C116.423 155.322 117.085 157.625 118.4 158.47C119.722 159.306 123.316 159.729 129.197 159.729C133.771 159.729 136.696 159.243 137.979 158.262C139.238 157.29 139.875 155.035 139.875 151.505C139.875 148.891 139.389 147.154 138.425 146.301C137.461 145.449 135.389 144.923 132.202 144.747L126.544 144.389C118.009 143.895 112.543 142.699 110.176 140.835C107.801 138.962 106.614 134.946 106.614 128.77C106.614 122.467 108.048 118.275 110.909 116.179C113.762 114.076 119.475 113.032 128.042 113.032C136.17 113.032 141.629 113.988 144.449 115.916C147.278 117.837 148.681 121.598 148.681 127.184V129.248H148.673Z" fill="#F74B6C"/>
<path d="M197.155 129.248H187.146C187.09 128.754 187.066 128.38 187.066 128.14C186.835 125.104 186.158 123.2 185.05 122.419C183.943 121.646 181.329 121.255 177.225 121.255C172.38 121.255 169.2 121.702 167.718 122.594C166.236 123.487 165.487 125.383 165.487 128.252C165.487 131.655 166.093 133.695 167.312 134.38C168.515 135.073 172.523 135.591 179.329 135.966C187.369 136.412 192.573 137.56 194.932 139.408C197.29 141.257 198.462 145.09 198.462 150.907C198.462 158.079 197.083 162.709 194.31 164.805C191.537 166.908 185.441 167.952 175.998 167.952C167.519 167.952 161.885 166.924 159.096 164.868C156.315 162.813 154.928 158.653 154.928 152.373L154.889 150.397H164.857L164.897 151.553C164.897 155.322 165.551 157.625 166.874 158.47C168.188 159.306 171.782 159.729 177.663 159.729C182.245 159.729 185.17 159.243 186.445 158.262C187.704 157.29 188.341 155.035 188.341 151.505C188.341 148.891 187.855 147.154 186.891 146.301C185.935 145.449 183.855 144.923 180.667 144.747L175.01 144.389C166.475 143.895 161.017 142.699 158.642 140.835C156.267 138.962 155.088 134.946 155.088 128.77C155.088 122.467 156.514 118.275 159.375 116.179C162.228 114.076 167.949 113.032 176.508 113.032C184.636 113.032 190.102 113.988 192.923 115.916C195.744 117.837 197.155 121.598 197.155 127.184V129.248Z" fill="#F74B6C"/>
</g>
<defs>
<clipPath id="clip0_185_13">
<rect width="255" height="255" fill="white" transform="translate(0 13)"/>
</clipPath>
</defs>
</svg>
