<?xml version="1.0" standalone="no"?>
<!DOCTYPE svg PUBLIC "-//W3C//DTD SVG 20010904//EN"
 "http://www.w3.org/TR/2001/REC-SVG-20010904/DTD/svg10.dtd">
<svg version="1.0" xmlns="http://www.w3.org/2000/svg"
 width="1223.000000pt" height="1280.000000pt" viewBox="0 0 1223.000000 1280.000000"
 preserveAspectRatio="xMidYMid meet">
<metadata>
Created by potrace 1.15, written by Peter Selinger 2001-2017
</metadata>
<g transform="translate(0.000000,1280.000000) scale(0.100000,-0.100000)"
fill="#f74b6c" stroke="none">
<path d="M8440 12661 c-353 -130 -832 -305 -1915 -701 -253 -92 -721 -263
-1040 -380 -571 -209 -1177 -430 -2080 -760 -668 -244 -1420 -519 -2065 -755
-311 -113 -728 -266 -927 -338 -339 -124 -362 -133 -357 -154 4 -13 -2 -33
-14 -50 -20 -28 -21 -43 -26 -2018 -3 -1094 -9 -2702 -12 -3572 l-6 -1582 30
-31 c29 -28 35 -30 109 -30 l78 0 158 -126 c156 -125 157 -126 203 -216 53
-101 67 -111 147 -102 l52 6 185 -130 c181 -128 186 -132 210 -188 13 -32 43
-78 67 -103 l42 -44 62 7 61 6 200 -137 200 -137 34 -68 c44 -87 65 -100 166
-106 l81 -5 182 -134 c181 -133 181 -134 216 -204 19 -39 44 -79 57 -89 12
-10 22 -23 22 -28 0 -6 12 -20 27 -32 21 -16 39 -20 83 -19 l57 2 159 -127
c157 -126 159 -129 195 -205 49 -106 87 -130 147 -96 23 12 240 103 732 305
63 26 378 156 700 290 322 134 637 264 700 290 63 26 378 156 700 290 322 134
637 264 700 290 63 26 378 156 700 290 322 134 637 264 700 290 63 26 378 156
700 290 322 134 637 264 700 290 63 26 378 156 700 290 322 134 637 264 700
290 402 165 709 294 732 308 15 9 30 23 33 31 7 17 11 113 105 2641 11 294 27
708 35 920 8 212 15 404 15 426 l0 41 58 18 c125 39 202 96 246 183 44 89 46
120 36 614 -5 255 -14 783 -20 1173 -6 391 -15 936 -19 1213 l-9 502 -28 38
c-50 67 -366 375 -489 478 -737 613 -1658 952 -2685 988 l-155 6 -375 -139z
m-8047 -3411 c161 -111 208 -149 230 -184 l28 -45 -10 -3263 c-6 -1795 -11
-3330 -12 -3413 l0 -150 -53 110 c-29 61 -63 119 -74 129 -20 18 -34 19 -183
13 l-161 -6 7 3467 c4 1907 9 3470 12 3475 2 4 6 7 9 7 3 0 96 -63 207 -140z
m497 59 c398 -99 691 -225 1018 -441 275 -181 570 -437 833 -723 l139 -150 0
-56 0 -57 -52 -6 c-29 -3 -83 -8 -119 -12 l-66 -6 -107 186 c-59 102 -115 187
-124 190 -9 3 -96 1 -192 -3 -96 -4 -178 -6 -182 -4 -4 2 -62 92 -129 201 -67
108 -132 207 -143 218 -21 21 -25 22 -211 14 -173 -7 -191 -6 -205 9 -9 10
-66 108 -128 218 -62 111 -118 206 -125 212 -13 10 -345 -1 -377 -13 -11 -4
-42 35 -112 142 -54 81 -98 150 -98 154 0 9 205 -30 380 -73z m125 -453 c141
-104 229 -177 246 -202 l27 -39 -9 -2010 c-4 -1105 -11 -2660 -15 -3454 l-6
-1444 -73 150 c-48 100 -81 157 -98 168 -24 15 -36 15 -194 -3 -127 -15 -170
-17 -176 -9 -9 13 -1 5050 9 6280 l6 727 32 0 c24 -1 79 -36 251 -164z m644
-449 c151 -94 283 -183 293 -197 18 -24 19 -59 18 -685 0 -607 -9 -2355 -26
-5195 l-7 -1125 -81 164 c-50 102 -91 171 -107 183 -25 19 -34 19 -213 8 -103
-6 -190 -9 -193 -6 -7 7 17 7007 24 7019 2 4 7 7 11 7 4 0 130 -78 281 -173z
m677 -403 c118 -80 222 -156 230 -169 15 -22 15 -331 4 -3362 -6 -1836 -12
-3410 -13 -3498 l-2 -160 -68 137 c-41 82 -76 142 -89 149 -15 8 -77 10 -200
7 l-178 -5 0 576 c0 317 5 1312 10 2211 5 899 12 2226 16 2948 l7 1312 34 0
c28 0 76 -28 249 -146z m559 -1071 c18 -2080 20 -2159 43 -2247 44 -158 103
-253 187 -297 l47 -24 -6 -1340 c-3 -737 -9 -1644 -12 -2016 l-7 -676 -63 128
c-37 75 -72 132 -84 139 -15 8 -69 9 -183 4 l-163 -7 -12 28 c-10 23 -12 225
-7 1004 3 537 10 2139 15 3560 6 1422 13 2587 16 2590 6 7 102 17 175 19 l46
2 8 -867z"/>
</g>
</svg>
