<svg width="305" height="296" viewBox="0 0 305 296" fill="none" xmlns="http://www.w3.org/2000/svg">
<circle cx="132.5" cy="132.5" r="132.5" fill="#FEF991"/>
<circle cx="133" cy="145" r="132" fill="black"/>
<path d="M84.8595 161.957L96.0364 155.194C98.1931 159.016 100.155 162.251 104.86 162.251C109.37 162.251 112.214 160.487 112.214 153.625V106.961H125.94V153.819C125.94 168.034 117.606 174.504 105.448 174.504C94.468 174.504 88.0944 168.818 84.8589 161.956M133.395 160.486L144.571 154.017C147.513 158.821 151.337 162.35 158.101 162.35C163.789 162.35 167.416 159.506 167.416 155.585C167.416 150.88 163.69 149.213 157.415 146.469L153.984 144.997C144.081 140.783 137.513 135.489 137.513 124.313C137.513 114.019 145.356 106.176 157.612 106.176C166.338 106.176 172.613 109.216 177.122 117.156L166.435 124.019C164.081 119.804 161.533 118.138 157.611 118.138C153.591 118.138 151.042 120.687 151.042 124.019C151.042 128.136 153.591 129.804 159.474 132.353L162.905 133.823C174.573 138.823 181.141 143.92 181.141 155.389C181.141 167.742 171.435 174.506 158.395 174.506C145.65 174.506 137.414 168.428 133.395 160.487" fill="#FEF991"/>
</svg>
