<svg width="29794" height="32264" viewBox="0 0 29794 32264" fill="none" xmlns="http://www.w3.org/2000/svg">
<mask id="mask0_35_3" style="mask-type:alpha" maskUnits="userSpaceOnUse" x="0" y="0" width="29794" height="32264">
<mask id="path-1-inside-1_35_3" fill="white">
<path fill-rule="evenodd" clip-rule="evenodd" d="M26146.4 7865.28L14956.1 18096L12530.4 15878.3L3647.59 7816.74L3647.59 32257.1H0.00135597L0.00268277 4506.39L0 4506.38V0.0703125L14950.6 13568.4L29791.7 0V4274.19H29794L29794 32263.2H26146.4V7865.28Z"/>
</mask>
<path fill-rule="evenodd" clip-rule="evenodd" d="M26146.4 7865.28L14956.1 18096L12530.4 15878.3L3647.59 7816.74L3647.59 32257.1H0.00135597L0.00268277 4506.39L0 4506.38V0.0703125L14950.6 13568.4L29791.7 0V4274.19H29794L29794 32263.2H26146.4V7865.28Z" fill="white"/>
<path d="M14956.1 18096L14892.7 18165.4L14956.1 18223.3L15019.5 18165.4L14956.1 18096ZM26146.4 7865.28H26240.4V7651.98L26083 7795.91L26146.4 7865.28ZM12530.4 15878.3L12593.9 15809L12593.7 15808.8L12593.6 15808.7L12530.4 15878.3ZM3647.59 7816.74L3710.76 7747.14L3553.59 7604.5V7816.74H3647.59ZM3647.59 32257.1V32351.1H3741.59V32257.1H3647.59ZM0.00135597 32257.1H-93.9986L-93.9986 32351.1H0.00135597V32257.1ZM0.00268277 4506.39H94.0027V4464.83L63.2697 4436.86L0.00268277 4506.39ZM0 4506.38H-94V4547.94L-63.2671 4575.91L0 4506.38ZM0 0.0703125L63.1724 -69.5375L-94 -212.179V0.0703125H0ZM14950.6 13568.4L14887.4 13638.1L14950.8 13695.6L15014 13637.8L14950.6 13568.4ZM29791.7 0H29885.7V-213.303L29728.3 -69.3761L29791.7 0ZM29791.7 4274.19H29697.7V4368.19H29791.7V4274.19ZM29794 4274.19H29888V4180.19H29794V4274.19ZM29794 32263.2V32357.2H29888V32263.2H29794ZM26146.4 32263.2H26052.4V32357.2H26146.4V32263.2ZM15019.5 18165.4L26209.8 7934.66L26083 7795.91L14892.7 18026.6L15019.5 18165.4ZM12467 15947.7L14892.7 18165.4L15019.5 18026.6L12593.9 15809L12467 15947.7ZM3584.42 7886.35L12467.3 15947.9L12593.6 15808.7L3710.76 7747.14L3584.42 7886.35ZM3741.59 32257.1L3741.59 7816.74H3553.59L3553.59 32257.1H3741.59ZM0.00135597 32351.1H3647.59V32163.1H0.00135597V32351.1ZM-93.9973 4506.39L-93.9986 32257.1H94.0014L94.0027 4506.39H-93.9973ZM-63.2671 4575.91L-63.2644 4575.91L63.2697 4436.86L63.2671 4436.86L-63.2671 4575.91ZM-94 0.0703125V4506.38H94V0.0703125H-94ZM15013.8 13498.8L63.1724 -69.5375L-63.1724 69.6781L14887.4 13638.1L15013.8 13498.8ZM29728.3 -69.3761L14887.2 13499.1L15014 13637.8L29855.2 69.3761L29728.3 -69.3761ZM29885.7 4274.19V0H29697.7V4274.19H29885.7ZM29791.7 4368.19H29794V4180.19H29791.7V4368.19ZM29700 4274.19L29700 32263.2H29888L29888 4274.19H29700ZM29794 32169.2H26146.4V32357.2H29794V32169.2ZM26240.4 32263.2V7865.28H26052.4V32263.2H26240.4Z" fill="black" mask="url(#path-1-inside-1_35_3)"/>
</mask>
<g mask="url(#mask0_35_3)">
<rect x="-6558" y="-1820" width="41920" height="35904" fill="url(#paint0_linear_35_3)"/>
</g>
<mask id="mask1_35_3" style="mask-type:alpha" maskUnits="userSpaceOnUse" x="5077" y="11787" width="19639" height="20476">
<path fill-rule="evenodd" clip-rule="evenodd" d="M21067.8 28928.1L21067.8 15122.7L24715.3 11787.9L24715.3 29374.7H24715.3V32262.9H16203.7L18821.4 28928.1H21067.8ZM5077.87 11787.9L5077.87 28927.6H8725.41L8725.41 15122.7L5077.87 11787.9ZM5077.86 28928.1H11219.3L13837 32262.9H5077.86L5077.86 28928.1Z" fill="#D9D9D9"/>
</mask>
<g mask="url(#mask1_35_3)">
<rect x="-5714" y="1028" width="43584" height="34048" fill="url(#paint1_linear_35_3)"/>
</g>
<defs>
<linearGradient id="paint0_linear_35_3" x1="14402" y1="13764" x2="14402" y2="34084" gradientUnits="userSpaceOnUse">
<stop stop-color="#1A1373"/>
<stop offset="1" stop-color="#2FF2F4"/>
</linearGradient>
<linearGradient id="paint1_linear_35_3" x1="16078" y1="18500" x2="16078" y2="35076" gradientUnits="userSpaceOnUse">
<stop stop-color="#FE6172"/>
<stop offset="1" stop-color="#FEFD8D"/>
</linearGradient>
</defs>
</svg>
